<svg width="146" height="48" viewBox="0 0 146 48" fill="none" xmlns="http://www.w3.org/2000/svg">
<g style="mix-blend-mode:luminosity" clip-path="url(#clip0_2145_209)">
<path d="M50.8091 34.7749V20.2199H51.1017L63.0556 34.7749H66.8173V13.4006H62.6376V27.919H62.345L50.3911 13.4006H46.6294V34.7749H50.8091ZM78.6459 35.1049C84.1631 35.1049 87.5487 31.9519 87.5487 26.6725C87.5487 21.4297 84.1631 18.2401 78.6459 18.2401C73.1705 18.2401 69.7431 21.4297 69.7431 26.6725C69.7849 31.9519 73.1287 35.1049 78.6459 35.1049ZM78.6459 32.0252C75.7201 32.0252 74.0482 30.0821 74.0482 26.6725C74.0482 23.2995 75.7201 21.3198 78.6459 21.3198C81.5717 21.3198 83.2436 23.2995 83.2436 26.6725C83.2436 30.0821 81.5717 32.0252 78.6459 32.0252ZM91.3522 14.6105V18.68H88.4264V21.6131H91.3522V30.4487C91.3522 33.6017 93.0241 34.8483 97.2873 34.8483C98.0815 34.8483 98.8756 34.7749 99.5026 34.6649V31.8053C99.001 31.8419 98.6666 31.8786 98.0815 31.8786C96.326 31.8786 95.5319 31.182 95.5319 29.5688V21.6131H99.5026V18.68H95.5319V14.6105H91.3522ZM102.01 34.7749H106.19V18.5701H102.01V34.7749ZM104.1 15.8937C105.48 15.8937 106.608 14.9038 106.608 13.6939C106.608 12.4474 105.48 11.4575 104.1 11.4575C102.721 11.4575 101.592 12.4474 101.592 13.6939C101.592 14.9038 102.721 15.8937 104.1 15.8937ZM117.643 35.1049C123.16 35.1049 126.545 31.9519 126.545 26.6725C126.545 21.4297 123.16 18.2401 117.643 18.2401C112.167 18.2401 108.74 21.4297 108.74 26.6725C108.74 31.9519 112.083 35.1049 117.643 35.1049ZM117.643 32.0252C114.717 32.0252 113.045 30.0821 113.045 26.6725C113.045 23.2995 114.717 21.3198 117.643 21.3198C120.526 21.3198 122.24 23.2995 122.24 26.6725C122.198 30.0821 120.526 32.0252 117.643 32.0252ZM129.011 34.7749H133.191V25.3526C133.191 22.9696 134.779 21.4664 137.245 21.4664C139.795 21.4664 140.965 22.7129 140.965 25.1693V34.7749H145.145V24.2894C145.145 20.4032 142.888 18.2401 138.792 18.2401C136.033 18.2401 134.194 19.34 133.316 21.1731H133.024V18.5701H128.969C129.011 18.5701 129.011 34.7749 129.011 34.7749Z" fill="black"/>
<path fill-rule="evenodd" clip-rule="evenodd" d="M6.55318 12.0326C7.76969 12.9024 8.2097 12.8337 10.4874 12.6964L31.9445 11.5519C32.4104 11.5519 32.0222 11.1399 31.8669 11.0941L28.295 8.82806C27.6221 8.37028 26.6903 7.82093 24.9561 7.95826L4.19781 9.30874C3.4472 9.37741 3.2919 9.72075 3.6025 9.97254L6.55318 12.0326ZM7.84734 16.4502V36.4098C7.84734 37.4857 8.44265 37.8748 9.81446 37.8061L33.394 36.593C34.7658 36.5243 34.9211 35.7918 34.9211 34.922V15.0998C34.9211 14.23 34.5329 13.7493 33.7046 13.818L9.06384 15.0998C8.15793 15.1684 7.84734 15.5804 7.84734 16.4502ZM31.1163 17.5261C31.2716 18.1212 31.1163 18.7392 30.4433 18.8079L29.3045 19.0139V33.7547C28.3209 34.2125 27.415 34.4871 26.6385 34.4871C25.422 34.4871 25.1114 34.1438 24.2055 33.1367L16.777 22.8135V32.7933L19.1324 33.2511C19.1324 33.2511 19.1324 34.4642 17.2429 34.4642L12.0145 34.7389C11.8592 34.4642 12.0145 33.8005 12.5322 33.6631L13.904 33.3198V20.1355L12.0145 19.9981C11.8592 19.403 12.2475 18.5332 13.3087 18.4645L18.9253 18.1212L26.6644 28.5588V19.3343L24.6973 19.1283C24.542 18.3959 25.1632 17.8465 25.9138 17.7778L31.1163 17.5261ZM2.46364 7.47759L24.0761 6.08133C26.7161 5.87532 27.415 6.01266 29.0715 7.08847L35.9564 11.3688C37.0953 12.1013 37.4835 12.3073 37.4835 13.1084V36.6159C37.4835 38.0808 36.8882 38.9506 34.7658 39.0879L9.68504 40.4384C8.08029 40.5071 7.32967 40.3011 6.50141 39.3626L1.40243 33.5258C0.496524 32.45 0.108276 31.6488 0.108276 30.7104V9.81231C0.108276 8.59917 0.729472 7.61492 2.46364 7.47759Z" fill="black"/>
</g>
<defs>
<clipPath id="clip0_2145_209">
<rect width="145.551" height="48" fill="white" transform="translate(0.108276)"/>
</clipPath>
</defs>
</svg>
