<svg width="112" height="48" viewBox="0 0 112 48" fill="none" xmlns="http://www.w3.org/2000/svg">
<g style="mix-blend-mode:luminosity" clip-path="url(#clip0_2145_211)">
<path fill-rule="evenodd" clip-rule="evenodd" d="M90.8335 20.5972C91.2557 21.2429 91.3938 21.9774 91.4395 22.8032L91.4994 23.9039V31.6007L91.5606 32.7025C91.6831 34.502 93.1805 35.8325 95.2264 35.9457L96.4631 36V23.9039L96.5244 22.8032C96.5752 21.9867 96.712 21.2382 97.1408 20.588C97.5777 19.921 98.2048 19.3677 98.9593 18.9835C99.7138 18.5993 100.569 18.3978 101.439 18.3992C102.309 18.4006 103.164 18.6049 103.917 18.9915C104.67 19.3781 105.294 19.9335 105.729 20.6018C106.151 21.2475 106.282 21.9959 106.333 22.8032L106.395 23.9005V31.6007L106.456 32.7025C106.583 34.5112 108.069 35.8418 110.122 35.9457L111.358 36V22.8032C111.358 20.4697 110.313 18.2317 108.451 16.5813C106.59 14.9309 104.065 14.0032 101.432 14.0023C100.023 14.001 98.6295 14.2662 97.3452 14.7803C96.0609 15.2944 94.9152 16.0454 93.9845 16.9833C93.0535 16.0458 91.9077 15.2949 90.6235 14.7807C89.3393 14.2665 87.9462 14.0007 86.537 14.0012C84.4754 14.0012 82.5623 14.5555 80.9777 15.513C80.0107 14.5567 77.8475 14.0012 76.6056 14.0012V36L77.8475 35.9457C79.9247 35.8244 81.426 34.5297 81.5068 32.7025L81.5732 31.6007V23.9039L81.6345 22.8032C81.6866 21.9728 81.8169 21.2429 82.2405 20.5926C82.6777 19.9261 83.3046 19.3728 84.0585 18.9882C84.8124 18.6035 85.667 18.4009 86.537 18.4005C87.4076 18.4006 88.2628 18.6037 89.0169 18.9893C89.771 19.3748 90.3975 19.9294 90.8335 20.5972ZM5.86363 35.9469L7.10554 36H25.7212L25.6599 34.9028C25.4918 33.0941 24.0466 31.7728 21.9993 31.655L20.7574 31.6007H9.58936L24.4793 18.3993L24.418 17.3032C24.3216 15.4761 22.8151 14.1559 20.7574 14.0554L19.5155 14.0058L0.899902 14.0012L0.961151 15.1019C1.12405 16.8932 2.5901 18.2422 4.62042 18.3462L5.86363 18.4005H17.0317L2.14181 31.6018L2.20306 32.7025C2.32556 34.5159 3.80204 35.8291 5.86363 35.9457V35.9469ZM71.7331 17.2212C72.8857 18.2426 73.8001 19.4552 74.4239 20.7898C75.0477 22.1244 75.3688 23.5548 75.3688 24.9994C75.3688 26.444 75.0477 27.8744 74.4239 29.209C73.8001 30.5436 72.8857 31.7562 71.7331 32.7776C69.4043 34.8399 66.247 35.9983 62.955 35.9983C59.663 35.9983 56.5057 34.8399 54.1769 32.7776C49.3305 28.4823 49.3305 21.5166 54.1769 17.2212C55.3285 16.2002 56.6958 15.3902 58.2006 14.8375C59.7054 14.2848 61.3183 14.0002 62.9472 14C64.5787 13.999 66.1945 14.2831 67.7021 14.836C69.2097 15.3889 70.5794 16.1999 71.7331 17.2224V17.2212ZM68.2211 20.3362C69.617 21.5744 70.4012 23.2531 70.4012 25.0035C70.4012 26.7538 69.617 28.4326 68.2211 29.6707C66.8241 30.908 64.9299 31.6029 62.955 31.6029C60.9801 31.6029 59.086 30.908 57.6889 29.6707C56.293 28.4326 55.5088 26.7538 55.5088 25.0035C55.5088 23.2531 56.293 21.5744 57.6889 20.3362C59.086 19.099 60.9801 18.404 62.955 18.404C64.9299 18.404 66.8241 19.099 68.2211 20.3362ZM36.8997 14C38.5287 14.0004 40.1416 14.2851 41.6464 14.8381C43.1512 15.391 44.5184 16.2012 45.6699 17.2224C50.5177 21.5166 50.5177 28.4834 45.6699 32.7776C43.3412 34.8399 40.1838 35.9983 36.8918 35.9983C33.5998 35.9983 30.4425 34.8399 28.1138 32.7776C23.2673 28.4823 23.2673 21.5166 28.1138 17.2212C29.2654 16.2002 30.6326 15.3902 32.1374 14.8375C33.6422 14.2848 35.2551 14.0002 36.884 14H36.8997ZM42.1579 20.3339C43.5543 21.5721 44.3387 23.2511 44.3387 25.0017C44.3387 26.7524 43.5543 28.4314 42.1579 29.6696C40.7609 30.9068 38.8668 31.6018 36.8918 31.6018C34.9169 31.6018 33.0228 30.9068 31.6258 29.6696C30.2298 28.4314 29.4457 26.7527 29.4457 25.0023C29.4457 23.252 30.2298 21.5732 31.6258 20.335C33.0228 19.0978 34.9169 18.4028 36.8918 18.4028C38.8668 18.4028 40.7609 19.0978 42.1579 20.335V20.3339Z" fill="#2D8CFF"/>
</g>
<defs>
<clipPath id="clip0_2145_211">
<rect width="110.573" height="48" fill="white" transform="translate(0.899902)"/>
</clipPath>
</defs>
</svg>
