<svg width="126" height="48" viewBox="0 0 126 48" fill="none" xmlns="http://www.w3.org/2000/svg">
<g style="mix-blend-mode:luminosity" clip-path="url(#clip0_2145_210)">
<path d="M17.8808 38.0663C15.9967 38.3595 14.0794 38.4474 12.0961 38.6816L6.04679 22.9786V39.3555C4.16269 39.5313 2.44384 39.7656 0.658813 40V10H5.6834L12.5588 27.0217V10H17.8808V38.0663ZM28.2933 20.9863C30.3429 20.9863 33.4832 20.8984 35.3673 20.8984V25.5858C33.0202 25.5858 30.2767 25.5858 28.2933 25.6737V32.6465C31.4007 32.4708 34.5079 32.2362 37.648 32.1483V36.6597L23.0043 37.6854V10H37.648V14.6875H28.2933V20.9863ZM57.3161 14.6876H51.8289V36.2501C50.0439 36.2501 48.2589 36.2501 46.5402 36.3085V14.6876H41.0531V10H57.3163L57.3161 14.6876ZM65.9105 20.6642H73.1498V25.3516H65.9105V35.9864H60.7204V10H75.4967V14.6875H65.9105V20.6642ZM84.0911 31.8848C87.0993 31.9432 90.1402 32.1486 93.0823 32.2948V36.9238C88.3554 36.66 83.6284 36.3966 78.8023 36.3085V10H84.0911V31.8848ZM97.5447 37.2461C99.2306 37.3341 101.016 37.422 102.734 37.5975V10H97.5447V37.2461ZM125.907 10L119.196 24.2676L125.907 40C123.923 39.7656 121.94 39.4433 119.956 39.1503L116.155 30.4786L112.288 38.4474C110.37 38.1542 108.519 38.0663 106.602 37.8319L113.412 24.0917L107.263 10H112.949L116.419 17.8809L120.122 10H125.907V10Z" fill="#D81F26"/>
</g>
<defs>
<clipPath id="clip0_2145_210">
<rect width="125.241" height="48" fill="white" transform="translate(0.658813)"/>
</clipPath>
</defs>
</svg>
